<mxfile host="65bd71144e">
    <diagram id="normalized-alumni-system-erd" name="Normalized Alumni System ERD">
        <mxGraphModel dx="982" dy="672" grid="1" gridSize="10" guides="1" tooltips="1" connect="1" arrows="1" fold="1" page="1" pageScale="1" pageWidth="3300" pageHeight="2339" background="#ffffff" math="0" shadow="0">
            <root>
                <mxCell id="0"/>
                <mxCell id="1" parent="0"/>
                <mxCell id="2" value="User (Django Auth)" style="swimlane;fontStyle=1;align=center;verticalAlign=top;childLayout=stackLayout;horizontal=1;startSize=26;horizontalStack=0;resizeParent=1;resizeParentMax=0;resizeLast=0;collapsible=1;marginBottom=0;" parent="1" vertex="1">
                    <mxGeometry x="40" y="40" width="200" height="130" as="geometry"/>
                </mxCell>
                <mxCell id="3" value="+ username: CharField&#xa;+ email: EmailField&#xa;+ first_name: CharField&#xa;+ last_name: CharField&#xa;+ is_active: BooleanField&#xa;+ date_joined: DateTimeField" style="text;strokeColor=none;fillColor=none;align=left;verticalAlign=top;spacingLeft=4;spacingRight=4;overflow=hidden;rotatable=0;points=[[0,0.5],[1,0.5]];portConstraint=eastwest;" parent="2" vertex="1">
                    <mxGeometry y="26" width="200" height="104" as="geometry"/>
                </mxCell>
                <mxCell id="4" value="Profile" style="swimlane;fontStyle=1;align=center;verticalAlign=top;childLayout=stackLayout;horizontal=1;startSize=26;horizontalStack=0;resizeParent=1;resizeParentMax=0;resizeLast=0;collapsible=1;marginBottom=0;" parent="1" vertex="1">
                    <mxGeometry x="320" y="40" width="200" height="180" as="geometry"/>
                </mxCell>
                <mxCell id="5" value="+ user: OneToOneField&#xa;+ avatar: ImageField&#xa;+ bio: TextField&#xa;+ birth_date: DateField&#xa;+ gender: CharField&#xa;+ current_position: CharField&#xa;+ current_employer: CharField&#xa;+ employment_status: CharField&#xa;+ is_public: BooleanField" style="text;strokeColor=none;fillColor=none;align=left;verticalAlign=top;spacingLeft=4;spacingRight=4;overflow=hidden;rotatable=0;points=[[0,0.5],[1,0.5]];portConstraint=eastwest;" parent="4" vertex="1">
                    <mxGeometry y="26" width="200" height="154" as="geometry"/>
                </mxCell>
                <mxCell id="6" value="Address" style="swimlane;fontStyle=1;align=center;verticalAlign=top;childLayout=stackLayout;horizontal=1;startSize=26;horizontalStack=0;resizeParent=1;resizeParentMax=0;resizeLast=0;collapsible=1;marginBottom=0;" parent="1" vertex="1">
                    <mxGeometry x="600" y="40" width="200" height="200" as="geometry"/>
                </mxCell>
                <mxCell id="7" value="+ user: ForeignKey&#xa;+ address_type: CharField&#xa;+ street_address: CharField&#xa;+ city: CharField&#xa;+ state: CharField&#xa;+ country: CountryField&#xa;+ postal_code: CharField&#xa;+ is_primary: BooleanField&#xa;+ is_verified: BooleanField&#xa;+ created_at: DateTimeField" style="text;strokeColor=none;fillColor=none;align=left;verticalAlign=top;spacingLeft=4;spacingRight=4;overflow=hidden;rotatable=0;points=[[0,0.5],[1,0.5]];portConstraint=eastwest;" parent="6" vertex="1">
                    <mxGeometry y="26" width="200" height="174" as="geometry"/>
                </mxCell>
                <mxCell id="8" value="ContactInfo" style="swimlane;fontStyle=1;align=center;verticalAlign=top;childLayout=stackLayout;horizontal=1;startSize=26;horizontalStack=0;resizeParent=1;resizeParentMax=0;resizeLast=0;collapsible=1;marginBottom=0;" parent="1" vertex="1">
                    <mxGeometry x="880" y="40" width="200" height="180" as="geometry"/>
                </mxCell>
                <mxCell id="9" value="+ user: ForeignKey&#xa;+ contact_type: CharField&#xa;+ contact_value: CharField&#xa;+ is_primary: BooleanField&#xa;+ is_verified: BooleanField&#xa;+ is_public: BooleanField&#xa;+ created_at: DateTimeField&#xa;+ updated_at: DateTimeField" style="text;strokeColor=none;fillColor=none;align=left;verticalAlign=top;spacingLeft=4;spacingRight=4;overflow=hidden;rotatable=0;points=[[0,0.5],[1,0.5]];portConstraint=eastwest;" parent="8" vertex="1">
                    <mxGeometry y="26" width="200" height="154" as="geometry"/>
                </mxCell>
                <mxCell id="10" value="Education" style="swimlane;fontStyle=1;align=center;verticalAlign=top;childLayout=stackLayout;horizontal=1;startSize=26;horizontalStack=0;resizeParent=1;resizeParentMax=0;resizeLast=0;collapsible=1;marginBottom=0;" parent="1" vertex="1">
                    <mxGeometry x="320" y="280" width="200" height="180" as="geometry"/>
                </mxCell>
                <mxCell id="11" value="+ profile: ForeignKey&#xa;+ program: CharField&#xa;+ major: CharField&#xa;+ school: CharField&#xa;+ graduation_year: IntegerField&#xa;+ achievements: TextField&#xa;+ is_primary: BooleanField&#xa;+ created_at: DateTimeField" style="text;strokeColor=none;fillColor=none;align=left;verticalAlign=top;spacingLeft=4;spacingRight=4;overflow=hidden;rotatable=0;points=[[0,0.5],[1,0.5]];portConstraint=eastwest;" parent="10" vertex="1">
                    <mxGeometry y="26" width="200" height="154" as="geometry"/>
                </mxCell>
                <mxCell id="12" value="Experience" style="swimlane;fontStyle=1;align=center;verticalAlign=top;childLayout=stackLayout;horizontal=1;startSize=26;horizontalStack=0;resizeParent=1;resizeParentMax=0;resizeLast=0;collapsible=1;marginBottom=0;" parent="1" vertex="1">
                    <mxGeometry x="600" y="280" width="200" height="180" as="geometry"/>
                </mxCell>
                <mxCell id="13" value="+ profile: ForeignKey&#xa;+ company: CharField&#xa;+ position: CharField&#xa;+ location: CharField&#xa;+ start_date: DateField&#xa;+ end_date: DateField&#xa;+ is_current: BooleanField&#xa;+ description: TextField" style="text;strokeColor=none;fillColor=none;align=left;verticalAlign=top;spacingLeft=4;spacingRight=4;overflow=hidden;rotatable=0;points=[[0,0.5],[1,0.5]];portConstraint=eastwest;" parent="12" vertex="1">
                    <mxGeometry y="26" width="200" height="154" as="geometry"/>
                </mxCell>
                <mxCell id="14" value="Skill" style="swimlane;fontStyle=1;align=center;verticalAlign=top;childLayout=stackLayout;horizontal=1;startSize=26;horizontalStack=0;resizeParent=1;resizeParentMax=0;resizeLast=0;collapsible=1;marginBottom=0;" parent="1" vertex="1">
                    <mxGeometry x="880" y="280" width="200" height="160" as="geometry"/>
                </mxCell>
                <mxCell id="15" value="+ profile: ForeignKey&#xa;+ name: CharField&#xa;+ skill_type: CharField&#xa;+ proficiency_level: IntegerField&#xa;+ created_at: DateTimeField&#xa;+ updated_at: DateTimeField" style="text;strokeColor=none;fillColor=none;align=left;verticalAlign=top;spacingLeft=4;spacingRight=4;overflow=hidden;rotatable=0;points=[[0,0.5],[1,0.5]];portConstraint=eastwest;" parent="14" vertex="1">
                    <mxGeometry y="26" width="200" height="134" as="geometry"/>
                </mxCell>
                <mxCell id="16" value="Document" style="swimlane;fontStyle=1;align=center;verticalAlign=top;childLayout=stackLayout;horizontal=1;startSize=26;horizontalStack=0;resizeParent=1;resizeParentMax=0;resizeLast=0;collapsible=1;marginBottom=0;" parent="1" vertex="1">
                    <mxGeometry x="40" y="280" width="200" height="160" as="geometry"/>
                </mxCell>
                <mxCell id="17" value="+ profile: ForeignKey&#xa;+ title: CharField&#xa;+ file: FileField&#xa;+ document_type: CharField&#xa;+ uploaded_at: DateTimeField&#xa;+ updated_at: DateTimeField&#xa;+ is_verified: BooleanField" style="text;strokeColor=none;fillColor=none;align=left;verticalAlign=top;spacingLeft=4;spacingRight=4;overflow=hidden;rotatable=0;points=[[0,0.5],[1,0.5]];portConstraint=eastwest;" parent="16" vertex="1">
                    <mxGeometry y="26" width="200" height="134" as="geometry"/>
                </mxCell>
                <mxCell id="31" value="AlumniGroup" style="swimlane;fontStyle=1;align=center;verticalAlign=top;childLayout=stackLayout;horizontal=1;startSize=26;horizontalStack=0;resizeParent=1;resizeParentMax=0;resizeLast=0;collapsible=1;marginBottom=0;" vertex="1" parent="1">
                    <mxGeometry x="40" y="500" width="200" height="200" as="geometry"/>
                </mxCell>
                <mxCell id="32" value="+ name: CharField&#xa;+ description: TextField&#xa;+ group_type: CharField&#xa;+ visibility: CharField&#xa;+ batch_start_year: IntegerField&#xa;+ batch_end_year: IntegerField&#xa;+ course: CharField&#xa;+ campus: CharField&#xa;+ created_by: ForeignKey&#xa;+ is_active: BooleanField" style="text;strokeColor=none;fillColor=none;align=left;verticalAlign=top;spacingLeft=4;spacingRight=4;overflow=hidden;rotatable=0;points=[[0,0.5],[1,0.5]];portConstraint=eastwest;" vertex="1" parent="31">
                    <mxGeometry y="26" width="200" height="174" as="geometry"/>
                </mxCell>
                <mxCell id="33" value="GroupMembership" style="swimlane;fontStyle=1;align=center;verticalAlign=top;childLayout=stackLayout;horizontal=1;startSize=26;horizontalStack=0;resizeParent=1;resizeParentMax=0;resizeLast=0;collapsible=1;marginBottom=0;" vertex="1" parent="1">
                    <mxGeometry x="320" y="500" width="200" height="160" as="geometry"/>
                </mxCell>
                <mxCell id="34" value="+ group: ForeignKey&#xa;+ user: ForeignKey&#xa;+ role: CharField&#xa;+ status: CharField&#xa;+ joined_at: DateTimeField&#xa;+ is_active: BooleanField&#xa;+ last_active_at: DateTimeField" style="text;strokeColor=none;fillColor=none;align=left;verticalAlign=top;spacingLeft=4;spacingRight=4;overflow=hidden;rotatable=0;points=[[0,0.5],[1,0.5]];portConstraint=eastwest;" vertex="1" parent="33">
                    <mxGeometry y="26" width="200" height="134" as="geometry"/>
                </mxCell>
                <mxCell id="35" value="Conversation" style="swimlane;fontStyle=1;align=center;verticalAlign=top;childLayout=stackLayout;horizontal=1;startSize=26;horizontalStack=0;resizeParent=1;resizeParentMax=0;resizeLast=0;collapsible=1;marginBottom=0;" vertex="1" parent="1">
                    <mxGeometry x="600" y="500" width="200" height="140" as="geometry"/>
                </mxCell>
                <mxCell id="36" value="+ participants: ManyToManyField&#xa;+ created_at: DateTimeField&#xa;+ updated_at: DateTimeField&#xa;+ is_group_chat: BooleanField&#xa;+ title: CharField" style="text;strokeColor=none;fillColor=none;align=left;verticalAlign=top;spacingLeft=4;spacingRight=4;overflow=hidden;rotatable=0;points=[[0,0.5],[1,0.5]];portConstraint=eastwest;" vertex="1" parent="35">
                    <mxGeometry y="26" width="200" height="114" as="geometry"/>
                </mxCell>
                <mxCell id="37" value="Message" style="swimlane;fontStyle=1;align=center;verticalAlign=top;childLayout=stackLayout;horizontal=1;startSize=26;horizontalStack=0;resizeParent=1;resizeParentMax=0;resizeLast=0;collapsible=1;marginBottom=0;" vertex="1" parent="1">
                    <mxGeometry x="880" y="500" width="200" height="160" as="geometry"/>
                </mxCell>
                <mxCell id="38" value="+ conversation: ForeignKey&#xa;+ sender: ForeignKey&#xa;+ content: TextField&#xa;+ timestamp: DateTimeField&#xa;+ is_read: BooleanField&#xa;+ attachment: FileField&#xa;+ created_at: DateTimeField" style="text;strokeColor=none;fillColor=none;align=left;verticalAlign=top;spacingLeft=4;spacingRight=4;overflow=hidden;rotatable=0;points=[[0,0.5],[1,0.5]];portConstraint=eastwest;" vertex="1" parent="37">
                    <mxGeometry y="26" width="200" height="134" as="geometry"/>
                </mxCell>
                <mxCell id="39" value="Feedback" style="swimlane;fontStyle=1;align=center;verticalAlign=top;childLayout=stackLayout;horizontal=1;startSize=26;horizontalStack=0;resizeParent=1;resizeParentMax=0;resizeLast=0;collapsible=1;marginBottom=0;" vertex="1" parent="1">
                    <mxGeometry x="40" y="760" width="200" height="160" as="geometry"/>
                </mxCell>
                <mxCell id="40" value="+ user: ForeignKey&#xa;+ subject: CharField&#xa;+ message: TextField&#xa;+ rating: IntegerField&#xa;+ status: CharField&#xa;+ created_at: DateTimeField&#xa;+ updated_at: DateTimeField" style="text;strokeColor=none;fillColor=none;align=left;verticalAlign=top;spacingLeft=4;spacingRight=4;overflow=hidden;rotatable=0;points=[[0,0.5],[1,0.5]];portConstraint=eastwest;" vertex="1" parent="39">
                    <mxGeometry y="26" width="200" height="134" as="geometry"/>
                </mxCell>
                <mxCell id="41" value="GroupAnalytics" style="swimlane;fontStyle=1;align=center;verticalAlign=top;childLayout=stackLayout;horizontal=1;startSize=26;horizontalStack=0;resizeParent=1;resizeParentMax=0;resizeLast=0;collapsible=1;marginBottom=0;" vertex="1" parent="1">
                    <mxGeometry x="320" y="760" width="200" height="180" as="geometry"/>
                </mxCell>
                <mxCell id="42" value="+ group: OneToOneField&#xa;+ total_members: IntegerField&#xa;+ active_members: IntegerField&#xa;+ total_posts: IntegerField&#xa;+ total_events: IntegerField&#xa;+ total_comments: IntegerField&#xa;+ engagement_rate: FloatField&#xa;+ last_updated: DateTimeField" style="text;strokeColor=none;fillColor=none;align=left;verticalAlign=top;spacingLeft=4;spacingRight=4;overflow=hidden;rotatable=0;points=[[0,0.5],[1,0.5]];portConstraint=eastwest;" vertex="1" parent="41">
                    <mxGeometry y="26" width="200" height="154" as="geometry"/>
                </mxCell>
                <mxCell id="43" value="" style="endArrow=none;html=1;rounded=0;exitX=0.5;exitY=1;exitDx=0;exitDy=0;entryX=0.5;entryY=0;entryDx=0;entryDy=0;" edge="1" parent="1" source="16" target="31">
                    <mxGeometry relative="1" as="geometry"/>
                </mxCell>
                <mxCell id="44" value="" style="endArrow=none;html=1;rounded=0;exitX=1;exitY=0.5;exitDx=0;exitDy=0;entryX=0;entryY=0.5;entryDx=0;entryDy=0;" edge="1" parent="1" source="32" target="34">
                    <mxGeometry relative="1" as="geometry"/>
                </mxCell>
                <mxCell id="45" value="" style="endArrow=none;html=1;rounded=0;exitX=0;exitY=0.5;exitDx=0;exitDy=0;entryX=1;entryY=0.5;entryDx=0;entryDy=0;" edge="1" parent="1" source="3" target="34">
                    <mxGeometry relative="1" as="geometry">
                        <Array as="points">
                            <mxPoint x="20" y="93"/>
                            <mxPoint x="20" y="593"/>
                        </Array>
                    </mxGeometry>
                </mxCell>
                <mxCell id="46" value="" style="endArrow=none;html=1;rounded=0;exitX=1;exitY=0.5;exitDx=0;exitDy=0;entryX=0;entryY=0.5;entryDx=0;entryDy=0;" edge="1" parent="1" source="34" target="36">
                    <mxGeometry relative="1" as="geometry"/>
                </mxCell>
                <mxCell id="47" value="" style="endArrow=none;html=1;rounded=0;exitX=1;exitY=0.5;exitDx=0;exitDy=0;entryX=0;entryY=0.5;entryDx=0;entryDy=0;" edge="1" parent="1" source="36" target="38">
                    <mxGeometry relative="1" as="geometry"/>
                </mxCell>
                <mxCell id="48" value="" style="endArrow=none;html=1;rounded=0;exitX=0.5;exitY=1;exitDx=0;exitDy=0;entryX=0.5;entryY=0;entryDx=0;entryDy=0;" edge="1" parent="1" source="31" target="39">
                    <mxGeometry relative="1" as="geometry"/>
                </mxCell>
                <mxCell id="49" value="" style="endArrow=none;html=1;rounded=0;exitX=1;exitY=0.5;exitDx=0;exitDy=0;entryX=0;entryY=0.5;entryDx=0;entryDy=0;" edge="1" parent="1" source="40" target="42">
                    <mxGeometry relative="1" as="geometry"/>
                </mxCell>
                <mxCell id="50" value="1" style="text;html=1;strokeColor=none;fillColor=none;align=center;verticalAlign=middle;whiteSpace=wrap;rounded=0;" vertex="1" parent="1">
                    <mxGeometry x="240" y="570" width="20" height="20" as="geometry"/>
                </mxCell>
                <mxCell id="51" value="n" style="text;html=1;strokeColor=none;fillColor=none;align=center;verticalAlign=middle;whiteSpace=wrap;rounded=0;" vertex="1" parent="1">
                    <mxGeometry x="300" y="570" width="20" height="20" as="geometry"/>
                </mxCell>
                <mxCell id="52" value="1" style="text;html=1;strokeColor=none;fillColor=none;align=center;verticalAlign=middle;whiteSpace=wrap;rounded=0;" vertex="1" parent="1">
                    <mxGeometry x="580" y="570" width="20" height="20" as="geometry"/>
                </mxCell>
                <mxCell id="53" value="n" style="text;html=1;strokeColor=none;fillColor=none;align=center;verticalAlign=middle;whiteSpace=wrap;rounded=0;" vertex="1" parent="1">
                    <mxGeometry x="860" y="570" width="20" height="20" as="geometry"/>
                </mxCell>
            </root>
        </mxGraphModel>
    </diagram>
</mxfile>